<?xml version="1.0" encoding="UTF-8" standalone="no"?>
<!DOCTYPE svg PUBLIC "-//W3C//DTD SVG 1.1//EN"
 "http://www.w3.org/Graphics/SVG/1.1/DTD/svg11.dtd">
<!-- Generated by graphviz version 2.43.0 (0)
 -->
<!-- Title: ensiie::Image::applyFilter Pages: 1 -->
<svg width="458pt" height="66pt"
 viewBox="0.00 0.00 458.00 66.00" xmlns="http://www.w3.org/2000/svg" xmlns:xlink="http://www.w3.org/1999/xlink">
<g id="graph0" class="graph" transform="scale(1 1) rotate(0) translate(4 62)">
<title>ensiie::Image::applyFilter</title>
<polygon fill="white" stroke="transparent" points="-4,4 -4,-62 454,-62 454,4 -4,4"/>
<!-- Node1 -->
<g id="node1" class="node">
<title>Node1</title>
<g id="a_node1"><a xlink:title="Apply a filter to the image.">
<polygon fill="#bfbfbf" stroke="black" points="0,-19.5 0,-38.5 140,-38.5 140,-19.5 0,-19.5"/>
<text text-anchor="middle" x="70" y="-26.5" font-family="Helvetica,sans-Serif" font-size="10.00">ensiie::Image::applyFilter</text>
</a>
</g>
</g>
<!-- Node2 -->
<g id="node2" class="node">
<title>Node2</title>
<g id="a_node2"><a xlink:href="image_8cpp.html#a043456c5361f85406b7dd829f73b8d7f" target="_top" xlink:title="Apply a filter on the image by using a thread.">
<polygon fill="white" stroke="black" points="176,-19.5 176,-38.5 277,-38.5 277,-19.5 176,-19.5"/>
<text text-anchor="middle" x="226.5" y="-26.5" font-family="Helvetica,sans-Serif" font-size="10.00">threadApplyFilter</text>
</a>
</g>
</g>
<!-- Node1&#45;&gt;Node2 -->
<g id="edge1" class="edge">
<title>Node1&#45;&gt;Node2</title>
<path fill="none" stroke="midnightblue" d="M140.12,-29C148.68,-29 157.39,-29 165.8,-29"/>
<polygon fill="midnightblue" stroke="midnightblue" points="165.88,-32.5 175.88,-29 165.88,-25.5 165.88,-32.5"/>
</g>
<!-- Node3 -->
<g id="node3" class="node">
<title>Node3</title>
<g id="a_node3"><a xlink:href="classensiie_1_1_image.html#acf3482000725658a2129ea69840d5e9b" target="_top" xlink:title="Get the height of the image.">
<polygon fill="white" stroke="black" points="313,-38.5 313,-57.5 450,-57.5 450,-38.5 313,-38.5"/>
<text text-anchor="middle" x="381.5" y="-45.5" font-family="Helvetica,sans-Serif" font-size="10.00">ensiie::Image::getHeight</text>
</a>
</g>
</g>
<!-- Node2&#45;&gt;Node3 -->
<g id="edge2" class="edge">
<title>Node2&#45;&gt;Node3</title>
<path fill="none" stroke="midnightblue" d="M277.17,-35.17C285.39,-36.19 294.08,-37.27 302.79,-38.35"/>
<polygon fill="midnightblue" stroke="midnightblue" points="302.64,-41.86 312.99,-39.62 303.5,-34.91 302.64,-41.86"/>
</g>
<!-- Node4 -->
<g id="node4" class="node">
<title>Node4</title>
<g id="a_node4"><a xlink:href="classensiie_1_1_image.html#a5cff6577c846048d4302d1638767a806" target="_top" xlink:title="Get the width of the image.">
<polygon fill="white" stroke="black" points="315,-0.5 315,-19.5 448,-19.5 448,-0.5 315,-0.5"/>
<text text-anchor="middle" x="381.5" y="-7.5" font-family="Helvetica,sans-Serif" font-size="10.00">ensiie::Image::getWidth</text>
</a>
</g>
</g>
<!-- Node2&#45;&gt;Node4 -->
<g id="edge3" class="edge">
<title>Node2&#45;&gt;Node4</title>
<path fill="none" stroke="midnightblue" d="M277.17,-22.83C286.02,-21.73 295.41,-20.57 304.78,-19.4"/>
<polygon fill="midnightblue" stroke="midnightblue" points="305.43,-22.85 314.92,-18.14 304.57,-15.9 305.43,-22.85"/>
</g>
</g>
</svg>
