<?xml version="1.0" encoding="UTF-8" standalone="no"?>
<!DOCTYPE svg PUBLIC "-//W3C//DTD SVG 1.1//EN"
 "http://www.w3.org/Graphics/SVG/1.1/DTD/svg11.dtd">
<!-- Generated by graphviz version 2.43.0 (0)
 -->
<!-- Title: ensiie::Image::applyFilter Pages: 1 -->
<svg width="634pt" height="66pt"
 viewBox="0.00 0.00 634.00 66.00" xmlns="http://www.w3.org/2000/svg" xmlns:xlink="http://www.w3.org/1999/xlink">
<g id="graph0" class="graph" transform="scale(1 1) rotate(0) translate(4 62)">
<title>ensiie::Image::applyFilter</title>
<polygon fill="white" stroke="transparent" points="-4,4 -4,-62 630,-62 630,4 -4,4"/>
<!-- Node1 -->
<g id="node1" class="node">
<title>Node1</title>
<g id="a_node1"><a xlink:title="Applies a filter to an image. Doesn&#39;t modify the source image.">
<polygon fill="#bfbfbf" stroke="black" points="0,-19.5 0,-38.5 140,-38.5 140,-19.5 0,-19.5"/>
<text text-anchor="middle" x="70" y="-26.5" font-family="Helvetica,sans-Serif" font-size="10.00">ensiie::Image::applyFilter</text>
</a>
</g>
</g>
<!-- Node2 -->
<g id="node2" class="node">
<title>Node2</title>
<g id="a_node2"><a xlink:href="classensiie_1_1_image.html#a1efd484c53b7bf93dc55e65eab8df4a6" target="_top" xlink:title="Apply a filter to the image.">
<polygon fill="white" stroke="black" points="176,-19.5 176,-38.5 316,-38.5 316,-19.5 176,-19.5"/>
<text text-anchor="middle" x="246" y="-26.5" font-family="Helvetica,sans-Serif" font-size="10.00">ensiie::Image::applyFilter</text>
</a>
</g>
</g>
<!-- Node1&#45;&gt;Node2 -->
<g id="edge1" class="edge">
<title>Node1&#45;&gt;Node2</title>
<path fill="none" stroke="midnightblue" d="M140.02,-29C148.48,-29 157.17,-29 165.76,-29"/>
<polygon fill="midnightblue" stroke="midnightblue" points="165.78,-32.5 175.78,-29 165.78,-25.5 165.78,-32.5"/>
</g>
<!-- Node3 -->
<g id="node3" class="node">
<title>Node3</title>
<g id="a_node3"><a xlink:href="image_8cpp.html#a043456c5361f85406b7dd829f73b8d7f" target="_top" xlink:title="Apply a filter on the image by using a thread.">
<polygon fill="white" stroke="black" points="352,-19.5 352,-38.5 453,-38.5 453,-19.5 352,-19.5"/>
<text text-anchor="middle" x="402.5" y="-26.5" font-family="Helvetica,sans-Serif" font-size="10.00">threadApplyFilter</text>
</a>
</g>
</g>
<!-- Node2&#45;&gt;Node3 -->
<g id="edge2" class="edge">
<title>Node2&#45;&gt;Node3</title>
<path fill="none" stroke="midnightblue" d="M316.12,-29C324.68,-29 333.39,-29 341.8,-29"/>
<polygon fill="midnightblue" stroke="midnightblue" points="341.88,-32.5 351.88,-29 341.88,-25.5 341.88,-32.5"/>
</g>
<!-- Node4 -->
<g id="node4" class="node">
<title>Node4</title>
<g id="a_node4"><a xlink:href="classensiie_1_1_image.html#acf3482000725658a2129ea69840d5e9b" target="_top" xlink:title="Get the height of the image.">
<polygon fill="white" stroke="black" points="489,-38.5 489,-57.5 626,-57.5 626,-38.5 489,-38.5"/>
<text text-anchor="middle" x="557.5" y="-45.5" font-family="Helvetica,sans-Serif" font-size="10.00">ensiie::Image::getHeight</text>
</a>
</g>
</g>
<!-- Node3&#45;&gt;Node4 -->
<g id="edge3" class="edge">
<title>Node3&#45;&gt;Node4</title>
<path fill="none" stroke="midnightblue" d="M453.17,-35.17C461.39,-36.19 470.08,-37.27 478.79,-38.35"/>
<polygon fill="midnightblue" stroke="midnightblue" points="478.64,-41.86 488.99,-39.62 479.5,-34.91 478.64,-41.86"/>
</g>
<!-- Node5 -->
<g id="node5" class="node">
<title>Node5</title>
<g id="a_node5"><a xlink:href="classensiie_1_1_image.html#a5cff6577c846048d4302d1638767a806" target="_top" xlink:title="Get the width of the image.">
<polygon fill="white" stroke="black" points="491,-0.5 491,-19.5 624,-19.5 624,-0.5 491,-0.5"/>
<text text-anchor="middle" x="557.5" y="-7.5" font-family="Helvetica,sans-Serif" font-size="10.00">ensiie::Image::getWidth</text>
</a>
</g>
</g>
<!-- Node3&#45;&gt;Node5 -->
<g id="edge4" class="edge">
<title>Node3&#45;&gt;Node5</title>
<path fill="none" stroke="midnightblue" d="M453.17,-22.83C462.02,-21.73 471.41,-20.57 480.78,-19.4"/>
<polygon fill="midnightblue" stroke="midnightblue" points="481.43,-22.85 490.92,-18.14 480.57,-15.9 481.43,-22.85"/>
</g>
</g>
</svg>
