<?xml version="1.0" encoding="UTF-8" standalone="no"?>
<!DOCTYPE svg PUBLIC "-//W3C//DTD SVG 1.1//EN"
 "http://www.w3.org/Graphics/SVG/1.1/DTD/svg11.dtd">
<!-- Generated by graphviz version 2.43.0 (0)
 -->
<!-- Title: src/image.cpp Pages: 1 -->
<svg width="394pt" height="196pt"
 viewBox="0.00 0.00 394.00 196.00" xmlns="http://www.w3.org/2000/svg" xmlns:xlink="http://www.w3.org/1999/xlink">
<g id="graph0" class="graph" transform="scale(1 1) rotate(0) translate(4 192)">
<title>src/image.cpp</title>
<polygon fill="white" stroke="transparent" points="-4,4 -4,-192 390,-192 390,4 -4,4"/>
<!-- Node1 -->
<g id="node1" class="node">
<title>Node1</title>
<g id="a_node1"><a xlink:title="Implements image.h.">
<polygon fill="#bfbfbf" stroke="black" points="185.5,-168.5 185.5,-187.5 270.5,-187.5 270.5,-168.5 185.5,-168.5"/>
<text text-anchor="middle" x="228" y="-175.5" font-family="Helvetica,sans-Serif" font-size="10.00">src/image.cpp</text>
</a>
</g>
</g>
<!-- Node2 -->
<g id="node2" class="node">
<title>Node2</title>
<g id="a_node2"><a xlink:href="image_8h.html" target="_top" xlink:title="Provides the Image class.">
<polygon fill="white" stroke="black" points="11,-112.5 11,-131.5 113,-131.5 113,-112.5 11,-112.5"/>
<text text-anchor="middle" x="62" y="-119.5" font-family="Helvetica,sans-Serif" font-size="10.00">../header/image.h</text>
</a>
</g>
</g>
<!-- Node1&#45;&gt;Node2 -->
<g id="edge1" class="edge">
<title>Node1&#45;&gt;Node2</title>
<path fill="none" stroke="midnightblue" d="M201.7,-168.44C173.65,-159.32 129.06,-144.81 97.82,-134.65"/>
<polygon fill="midnightblue" stroke="midnightblue" points="98.77,-131.28 88.18,-131.52 96.61,-137.94 98.77,-131.28"/>
</g>
<!-- Node6 -->
<g id="node6" class="node">
<title>Node6</title>
<g id="a_node6"><a xlink:title=" ">
<polygon fill="white" stroke="#bfbfbf" points="131.5,-112.5 131.5,-131.5 186.5,-131.5 186.5,-112.5 131.5,-112.5"/>
<text text-anchor="middle" x="159" y="-119.5" font-family="Helvetica,sans-Serif" font-size="10.00">fstream</text>
</a>
</g>
</g>
<!-- Node1&#45;&gt;Node6 -->
<g id="edge5" class="edge">
<title>Node1&#45;&gt;Node6</title>
<path fill="none" stroke="midnightblue" d="M216.91,-168.32C206.51,-160.18 190.74,-147.84 178.28,-138.09"/>
<polygon fill="midnightblue" stroke="midnightblue" points="180.32,-135.24 170.29,-131.83 176.01,-140.75 180.32,-135.24"/>
</g>
<!-- Node7 -->
<g id="node7" class="node">
<title>Node7</title>
<g id="a_node7"><a xlink:title=" ">
<polygon fill="white" stroke="#bfbfbf" points="204.5,-112.5 204.5,-131.5 251.5,-131.5 251.5,-112.5 204.5,-112.5"/>
<text text-anchor="middle" x="228" y="-119.5" font-family="Helvetica,sans-Serif" font-size="10.00">vector</text>
</a>
</g>
</g>
<!-- Node1&#45;&gt;Node7 -->
<g id="edge6" class="edge">
<title>Node1&#45;&gt;Node7</title>
<path fill="none" stroke="midnightblue" d="M228,-168.08C228,-161.01 228,-150.86 228,-141.99"/>
<polygon fill="midnightblue" stroke="midnightblue" points="231.5,-141.75 228,-131.75 224.5,-141.75 231.5,-141.75"/>
</g>
<!-- Node8 -->
<g id="node8" class="node">
<title>Node8</title>
<g id="a_node8"><a xlink:title=" ">
<polygon fill="white" stroke="#bfbfbf" points="270,-112.5 270,-131.5 320,-131.5 320,-112.5 270,-112.5"/>
<text text-anchor="middle" x="295" y="-119.5" font-family="Helvetica,sans-Serif" font-size="10.00">cstring</text>
</a>
</g>
</g>
<!-- Node1&#45;&gt;Node8 -->
<g id="edge7" class="edge">
<title>Node1&#45;&gt;Node8</title>
<path fill="none" stroke="midnightblue" d="M238.76,-168.32C248.77,-160.26 263.89,-148.08 275.93,-138.37"/>
<polygon fill="midnightblue" stroke="midnightblue" points="278.45,-140.83 284.04,-131.83 274.06,-135.38 278.45,-140.83"/>
</g>
<!-- Node9 -->
<g id="node9" class="node">
<title>Node9</title>
<g id="a_node9"><a xlink:title=" ">
<polygon fill="white" stroke="#bfbfbf" points="338,-112.5 338,-131.5 386,-131.5 386,-112.5 338,-112.5"/>
<text text-anchor="middle" x="362" y="-119.5" font-family="Helvetica,sans-Serif" font-size="10.00">thread</text>
</a>
</g>
</g>
<!-- Node1&#45;&gt;Node9 -->
<g id="edge8" class="edge">
<title>Node1&#45;&gt;Node9</title>
<path fill="none" stroke="midnightblue" d="M249.23,-168.44C271.38,-159.52 306.32,-145.44 331.44,-135.32"/>
<polygon fill="midnightblue" stroke="midnightblue" points="332.9,-138.5 340.87,-131.52 330.28,-132.01 332.9,-138.5"/>
</g>
<!-- Node3 -->
<g id="node3" class="node">
<title>Node3</title>
<g id="a_node3"><a xlink:href="filter_8h.html" target="_top" xlink:title="Provides the Filter class.">
<polygon fill="white" stroke="black" points="6.5,-56.5 6.5,-75.5 53.5,-75.5 53.5,-56.5 6.5,-56.5"/>
<text text-anchor="middle" x="30" y="-63.5" font-family="Helvetica,sans-Serif" font-size="10.00">filter.h</text>
</a>
</g>
</g>
<!-- Node2&#45;&gt;Node3 -->
<g id="edge2" class="edge">
<title>Node2&#45;&gt;Node3</title>
<path fill="none" stroke="midnightblue" d="M56.72,-112.08C52.29,-104.61 45.84,-93.72 40.38,-84.52"/>
<polygon fill="midnightblue" stroke="midnightblue" points="43.29,-82.57 35.19,-75.75 37.27,-86.14 43.29,-82.57"/>
</g>
<!-- Node5 -->
<g id="node5" class="node">
<title>Node5</title>
<g id="a_node5"><a xlink:title=" ">
<polygon fill="white" stroke="#bfbfbf" points="72,-56.5 72,-75.5 116,-75.5 116,-56.5 72,-56.5"/>
<text text-anchor="middle" x="94" y="-63.5" font-family="Helvetica,sans-Serif" font-size="10.00">string</text>
</a>
</g>
</g>
<!-- Node2&#45;&gt;Node5 -->
<g id="edge4" class="edge">
<title>Node2&#45;&gt;Node5</title>
<path fill="none" stroke="midnightblue" d="M67.28,-112.08C71.71,-104.61 78.16,-93.72 83.62,-84.52"/>
<polygon fill="midnightblue" stroke="midnightblue" points="86.73,-86.14 88.81,-75.75 80.71,-82.57 86.73,-86.14"/>
</g>
<!-- Node4 -->
<g id="node4" class="node">
<title>Node4</title>
<g id="a_node4"><a xlink:title=" ">
<polygon fill="white" stroke="#bfbfbf" points="0,-0.5 0,-19.5 60,-19.5 60,-0.5 0,-0.5"/>
<text text-anchor="middle" x="30" y="-7.5" font-family="Helvetica,sans-Serif" font-size="10.00">iostream</text>
</a>
</g>
</g>
<!-- Node3&#45;&gt;Node4 -->
<g id="edge3" class="edge">
<title>Node3&#45;&gt;Node4</title>
<path fill="none" stroke="midnightblue" d="M30,-56.08C30,-49.01 30,-38.86 30,-29.99"/>
<polygon fill="midnightblue" stroke="midnightblue" points="33.5,-29.75 30,-19.75 26.5,-29.75 33.5,-29.75"/>
</g>
</g>
</svg>
