<?xml version="1.0" encoding="UTF-8" standalone="no"?>
<!DOCTYPE svg PUBLIC "-//W3C//DTD SVG 1.1//EN"
 "http://www.w3.org/Graphics/SVG/1.1/DTD/svg11.dtd">
<!-- Generated by graphviz version 2.43.0 (0)
 -->
<!-- Title: threadApplyFilter Pages: 1 -->
<svg width="282pt" height="66pt"
 viewBox="0.00 0.00 282.00 66.00" xmlns="http://www.w3.org/2000/svg" xmlns:xlink="http://www.w3.org/1999/xlink">
<g id="graph0" class="graph" transform="scale(1 1) rotate(0) translate(4 62)">
<title>threadApplyFilter</title>
<polygon fill="white" stroke="transparent" points="-4,4 -4,-62 278,-62 278,4 -4,4"/>
<!-- Node1 -->
<g id="node1" class="node">
<title>Node1</title>
<g id="a_node1"><a xlink:title="Apply a filter on the image by using a thread.">
<polygon fill="#bfbfbf" stroke="black" points="0,-19.5 0,-38.5 101,-38.5 101,-19.5 0,-19.5"/>
<text text-anchor="middle" x="50.5" y="-26.5" font-family="Helvetica,sans-Serif" font-size="10.00">threadApplyFilter</text>
</a>
</g>
</g>
<!-- Node2 -->
<g id="node2" class="node">
<title>Node2</title>
<g id="a_node2"><a xlink:href="classensiie_1_1_image.html#acf3482000725658a2129ea69840d5e9b" target="_top" xlink:title="Get the height of the image.">
<polygon fill="white" stroke="black" points="137,-38.5 137,-57.5 274,-57.5 274,-38.5 137,-38.5"/>
<text text-anchor="middle" x="205.5" y="-45.5" font-family="Helvetica,sans-Serif" font-size="10.00">ensiie::Image::getHeight</text>
</a>
</g>
</g>
<!-- Node1&#45;&gt;Node2 -->
<g id="edge1" class="edge">
<title>Node1&#45;&gt;Node2</title>
<path fill="none" stroke="midnightblue" d="M101.17,-35.17C109.39,-36.19 118.08,-37.27 126.79,-38.35"/>
<polygon fill="midnightblue" stroke="midnightblue" points="126.64,-41.86 136.99,-39.62 127.5,-34.91 126.64,-41.86"/>
</g>
<!-- Node3 -->
<g id="node3" class="node">
<title>Node3</title>
<g id="a_node3"><a xlink:href="classensiie_1_1_image.html#a5cff6577c846048d4302d1638767a806" target="_top" xlink:title="Get the width of the image.">
<polygon fill="white" stroke="black" points="139,-0.5 139,-19.5 272,-19.5 272,-0.5 139,-0.5"/>
<text text-anchor="middle" x="205.5" y="-7.5" font-family="Helvetica,sans-Serif" font-size="10.00">ensiie::Image::getWidth</text>
</a>
</g>
</g>
<!-- Node1&#45;&gt;Node3 -->
<g id="edge2" class="edge">
<title>Node1&#45;&gt;Node3</title>
<path fill="none" stroke="midnightblue" d="M101.17,-22.83C110.02,-21.73 119.41,-20.57 128.78,-19.4"/>
<polygon fill="midnightblue" stroke="midnightblue" points="129.43,-22.85 138.92,-18.14 128.57,-15.9 129.43,-22.85"/>
</g>
</g>
</svg>
