<?xml version="1.0" encoding="UTF-8" standalone="no"?>
<!DOCTYPE svg PUBLIC "-//W3C//DTD SVG 1.1//EN"
 "http://www.w3.org/Graphics/SVG/1.1/DTD/svg11.dtd">
<!-- Generated by graphviz version 2.43.0 (0)
 -->
<!-- Title: threadApplyFilter Pages: 1 -->
<svg width="461pt" height="28pt"
 viewBox="0.00 0.00 461.00 28.00" xmlns="http://www.w3.org/2000/svg" xmlns:xlink="http://www.w3.org/1999/xlink">
<g id="graph0" class="graph" transform="scale(1 1) rotate(0) translate(4 24)">
<title>threadApplyFilter</title>
<polygon fill="white" stroke="transparent" points="-4,4 -4,-24 457,-24 457,4 -4,4"/>
<!-- Node1 -->
<g id="node1" class="node">
<title>Node1</title>
<g id="a_node1"><a xlink:title="Apply a filter on the image by using a thread.">
<polygon fill="#bfbfbf" stroke="black" points="352,-0.5 352,-19.5 453,-19.5 453,-0.5 352,-0.5"/>
<text text-anchor="middle" x="402.5" y="-7.5" font-family="Helvetica,sans-Serif" font-size="10.00">threadApplyFilter</text>
</a>
</g>
</g>
<!-- Node2 -->
<g id="node2" class="node">
<title>Node2</title>
<g id="a_node2"><a xlink:href="classensiie_1_1_image.html#a1efd484c53b7bf93dc55e65eab8df4a6" target="_top" xlink:title="Apply a filter to the image.">
<polygon fill="white" stroke="black" points="176,-0.5 176,-19.5 316,-19.5 316,-0.5 176,-0.5"/>
<text text-anchor="middle" x="246" y="-7.5" font-family="Helvetica,sans-Serif" font-size="10.00">ensiie::Image::applyFilter</text>
</a>
</g>
</g>
<!-- Node1&#45;&gt;Node2 -->
<g id="edge1" class="edge">
<title>Node1&#45;&gt;Node2</title>
<path fill="none" stroke="midnightblue" d="M341.7,-10C333.3,-10 324.61,-10 316.06,-10"/>
<polygon fill="midnightblue" stroke="midnightblue" points="341.76,-13.5 351.76,-10 341.76,-6.5 341.76,-13.5"/>
</g>
<!-- Node3 -->
<g id="node3" class="node">
<title>Node3</title>
<g id="a_node3"><a xlink:href="classensiie_1_1_image.html#a1a1a2b577e318661f7aff8b0c36f7f56" target="_top" xlink:title="Applies a filter to an image. Doesn&#39;t modify the source image.">
<polygon fill="white" stroke="black" points="0,-0.5 0,-19.5 140,-19.5 140,-0.5 0,-0.5"/>
<text text-anchor="middle" x="70" y="-7.5" font-family="Helvetica,sans-Serif" font-size="10.00">ensiie::Image::applyFilter</text>
</a>
</g>
</g>
<!-- Node2&#45;&gt;Node3 -->
<g id="edge2" class="edge">
<title>Node2&#45;&gt;Node3</title>
<path fill="none" stroke="midnightblue" d="M165.97,-10C157.38,-10 148.68,-10 140.22,-10"/>
<polygon fill="midnightblue" stroke="midnightblue" points="165.98,-13.5 175.98,-10 165.98,-6.5 165.98,-13.5"/>
</g>
</g>
</svg>
